<?xml version="1.0" encoding="utf-8"?>
<!-- Generator: Adobe Illustrator 17.0.0, SVG Export Plug-In . SVG Version: 6.00 Build 0)  -->
<!DOCTYPE svg PUBLIC "-//W3C//DTD SVG 1.1//EN" "http://www.w3.org/Graphics/SVG/1.1/DTD/svg11.dtd">
<svg version="1.1" id="图层_1" xmlns="http://www.w3.org/2000/svg" xmlns:xlink="http://www.w3.org/1999/xlink" x="0px" y="0px"
	 width="45px" height="45px" viewBox="0 0 45 45" enable-background="new 0 0 45 45" xml:space="preserve">
<g>
	<path id="XMLID_263_" fill-rule="evenodd" clip-rule="evenodd" fill="#003847" d="M38.666,9.333c0,0.087,0,0.175,0,0.261
		c0.772,0.384,1.922,2.343,1.883,3.138c-0.029,0.577,0.117,1.422,0.159,2.096c-0.096-0.024-0.449,0.962-0.471,1.099
		c0.673,0.491-0.314,3.237-0.314,3.925c-0.246-0.089-0.069,0.245-0.315,0.157c-0.051,0.188-0.237,1.704-0.314,1.674
		c0.148,0.561,0.21,0.913,0.629,1.152c0,0.192,0,0.384,0,0.576c0.835,0.646,1.57,1.262,1.57,2.25
		c-0.325-0.115,0.01,0.429-0.314,0.314c0.104,0.471-0.261,0.472-0.158,0.942c-0.324-0.115,0.011,0.429-0.313,0.314
		c0,0.855-0.641,0.971-0.942,1.727c-0.59,0.073-3.379,0.42-3.611-0.053c0-0.245,0-0.489,0-0.733c0.457-0.183,0.755-0.84,1.255-0.942
		c0-0.139,0-0.279,0-0.419c-0.072-0.207-0.439-0.118-0.47-0.367c-1.059,0-1.644-0.562-2.46-1.256
		c-0.236,0.325,0.173,0.454,0.105,0.785c-0.16-0.037-0.191,0.054-0.314,0.053c0.237,0.071,0.136,1.556,0.157,1.832
		c-0.229,0.031-0.181,0.342-0.314,0.471c-0.453,0-0.906,0-1.361,0c-0.118,0.029,0.063,0.082-0.053,0.157
		c-1.632,0-3.69,0.299-5.181-0.157c0.031-0.136-0.02-0.188-0.156-0.157c0-1.595,1.837-1.18,2.983-1.884c0-0.139,0-0.279,0-0.418
		c-0.261-0.332-0.738-0.449-0.785-0.995c-0.205-0.083-0.108,0.136-0.21,0.157c-0.141-0.103-0.317-0.171-0.261-0.47
		c-0.209,0-0.419,0-0.628,0c-0.066-0.623-0.157,0.058-0.157-1.047c-0.006-0.116-0.222-0.022-0.313-0.052
		c-0.18-0.571-0.468-1.79-0.158-2.355c-0.16,0.069-0.428,0.316-0.523,0c-0.186-0.081-0.031,0.178-0.157,0.158
		c-0.234,0.024-0.01-0.409-0.157-0.471c-0.111,0.133-0.287,0.201-0.576,0.156c0-0.156,0-0.313,0-0.471
		c-0.21,0.016-0.248,0.206-0.367,0.315c-0.111-0.133-0.286-0.202-0.576-0.157c0.079-0.307-0.142-0.311-0.209-0.471
		c-0.186-0.082-0.032,0.177-0.158,0.157c-0.181-0.026-0.133-0.199-0.104-0.314c-0.047,0.032-0.093,0.062-0.104,0
		c-0.108,0.062,0.054,0.227-0.105,0.314c-0.141-0.068-0.22-0.198-0.314-0.314c-0.249-0.058,0.053,0.435-0.261,0.314
		c0,0.209,0,0.418,0,0.627c-0.245-0.088-0.068,0.246-0.314,0.157c0,0.245,0,0.489,0,0.733c-0.068,0.063-0.082,0.021-0.156,0
		c-0.019,0.108-0.376,2.324-0.628,2.25c0,0.211,0,0.419,0,0.628c-0.206,0.057-0.353,0.172-0.314,0.471
		c-0.246-0.088-0.068,0.246-0.314,0.157c0,0.157,0,0.314,0,0.471c-0.31,0.057-0.162,0.571-0.471,0.628c0,0.367,0,0.733,0,1.099
		c-0.053,0-0.104,0-0.157,0c0,0.314,0,0.628,0,0.942c-0.175,0.034-0.279,0.139-0.314,0.314c-0.61,0-1.221,0-1.832,0
		c-0.062,0.008-0.045,0.095-0.053,0.157c-1.296,0-2.799,0.151-3.925-0.157c0.006-0.269-0.32-0.203-0.314-0.471
		c-0.733,0-1.465,0-2.198,0c0-0.053,0-0.104,0-0.157c-0.314,0-0.628,0-0.942,0c-0.117-0.431,0.209-0.418,0.157-0.785
		c0.365-0.072,0.708-0.671,1.153-0.626c0.312,0.031,0.848-0.159,1.307-0.159c-0.024-0.2,0.363-0.158,0.523-0.314
		c0-0.244,0-0.488,0-0.733c-0.006-0.116-0.222-0.022-0.314-0.053c0-0.139,0-0.278,0-0.419c-0.006-0.116-0.223-0.022-0.313-0.053
		c0-0.034,0.129-1.086,0.157-1.098c-0.205-0.083-0.108,0.136-0.21,0.156c-0.212,0.021-0.058-0.325-0.104-0.47
		c0.052,0,0.104,0,0.157,0c-0.083-0.264-0.175-0.761-0.157-1.013c0.035-0.493,0.184-1.323,0.104-1.813
		c-0.199,0.045-0.176,0.312-0.419,0.313c0.179-0.187,0.177-0.556,0.157-0.941c0.052,0,0.104,0,0.157,0
		c0-0.434-0.223-1.072-0.157-1.413c-0.243,0.031-0.317-0.072-0.471,0c-0.146-0.232-0.355-0.321-0.785-0.523
		c-0.095-0.305-0.157-0.692-0.157-0.995c-0.334-0.364-0.484-0.911-1.099-0.994c0-0.053,0-0.105,0-0.157
		c-0.452-0.124-1.775,0.097-2.093-0.314c-0.174-0.017-0.057,0.257-0.313,0.157c-0.091-0.172-0.414-0.11-0.472-0.314
		c-0.174-0.017-0.057,0.256-0.314,0.157c-0.119-0.107-0.257-0.159-0.418-0.157c0.04-0.049,0.092-0.066,0.155-0.053
		c-0.183-0.405-2.178-0.991-2.302-0.418C6.144,15.13,6.2,14.986,6.114,14.985c-0.112-0.024-0.1,0.075-0.105,0.157
		c-0.228,0.002-0.502,0.049-0.523-0.157C5.3,14.904,5.455,15.163,5.33,15.142c-0.187,0.081-0.032-0.178-0.158-0.157
		c-0.186-0.082-0.031,0.177-0.157,0.157c-0.386-0.277-0.577-0.749-1.204-0.785c0-0.052,0-0.105,0-0.157
		c-0.66,0-1.306,0.025-1.884-0.157c-0.015-0.211-0.205-0.248-0.314-0.366c0.059-0.221,0.38-0.18,0.314-0.524
		c-0.388-0.117-0.876-0.135-0.941-0.576c-0.025-0.112,0.075-0.1,0.157-0.105c0.029-0.522-0.784-0.699-0.628-1.255
		c0.984-0.106,1.808-0.909,2.825-1.256c0-0.157,0-0.314,0-0.471c0.043,0.028,0.086,0.054,0.158,0.053
		c-0.112-0.39,0.244-0.315,0.157-0.681c0.618,0.04,1.86-0.981,2.512-1.256c0-0.692,0.327-0.939,0.733-1.413
		c0.532,0,0.895,0.113,1.308,0.156C8.119,6.596,8.454,6.418,8.365,6.664c0.312-0.096,2.318-0.069,2.302-0.157
		c1.206-0.358,2.67-0.314,4.082-0.314c0.061-0.008,0.044-0.095,0.053-0.157C15.152,6.007,17.077,4.901,17,4.78
		c0.876-0.24,1.95-0.381,2.983-0.314c0,0.053,0,0.104,0,0.157c0.586-0.115,0.746,0.196,1.256,0.157
		c0.057,0.31,0.571,0.162,0.628,0.471c0.157,0,0.314,0,0.471,0c-0.182,0.513,3.184,0.668,3.561,0.616
		c2.196-0.302,4.282-0.459,6.644-0.459c0.001-0.043,2.7,0.922,2.983,0.941c0.124,0.235,0.584,0.415,0.772,0.563
		c0.388,0.304,0.595,0.444,0.94,0.788C37.595,8.057,38.085,9.218,38.666,9.333C38.666,9.42,38.295,9.26,38.666,9.333z"/>
	<g>
		<g>
			<path fill="#003847" d="M9.607,34.785c-0.487,0.098-0.546,0.137-0.546,0.789v0.77c0,0.351,0.01,0.663,0.059,0.917
				c-0.585,0.146-1.432,0.36-2.221,0.36c-2.26,0-3.712-1.286-3.712-3.234c0-2.222,1.803-3.391,3.858-3.391
				c0.789,0,1.549,0.195,1.9,0.273c0.029,0.34,0.078,0.847,0.156,1.617L8.74,32.954c-0.243-1.081-0.974-1.549-1.89-1.549
				c-1.169,0-2.182,1.052-2.182,2.806c0,1.471,0.721,3,2.319,3c0.194,0,0.419-0.029,0.546-0.116
				c0.146-0.088,0.224-0.244,0.224-0.536v-0.925c0-0.683-0.049-0.761-1.072-0.848v-0.331h2.923V34.785z"/>
			<path fill="#003847" d="M16.504,37.562c-0.059,0-0.176-0.01-0.293-0.01c-1.228-0.058-1.608-0.331-1.997-0.945
				c-0.253-0.4-0.516-0.925-0.799-1.432c-0.156-0.303-0.331-0.419-0.643-0.429h-0.185v1.423c0,0.798,0.098,0.896,0.828,0.964v0.341
				h-2.943v-0.341c0.731-0.068,0.838-0.166,0.838-0.964v-3.741c0-0.779-0.088-0.877-0.799-0.945v-0.341h2.738
				c0.847,0,1.344,0.098,1.734,0.37c0.39,0.254,0.663,0.693,0.663,1.296c0,0.857-0.565,1.315-1.218,1.588
				c0.136,0.282,0.507,0.935,0.789,1.383c0.351,0.536,0.555,0.847,0.75,1.052c0.215,0.224,0.37,0.341,0.594,0.419L16.504,37.562z
				 M12.84,34.367c0.409,0,0.74-0.068,0.955-0.263c0.331-0.272,0.468-0.662,0.468-1.159c0-1.033-0.604-1.413-1.15-1.413
				c-0.243,0-0.38,0.039-0.438,0.098c-0.068,0.058-0.088,0.156-0.088,0.36v2.378H12.84z"/>
			<path fill="#003847" d="M17.213,37.474v-0.341c0.721-0.068,0.809-0.136,0.809-0.954v-3.732c0-0.828-0.088-0.896-0.809-0.964
				v-0.341h2.923v0.341c-0.721,0.068-0.809,0.136-0.809,0.964v3.732c0,0.818,0.088,0.886,0.809,0.954v0.341H17.213z"/>
			<path fill="#003847" d="M26.731,35.672c-0.078,0.478-0.254,1.461-0.36,1.803h-5.164l-0.117-0.166
				c1.257-1.89,2.513-3.848,3.722-5.728h-1.227c-0.994,0-1.179,0.116-1.335,0.34c-0.127,0.176-0.273,0.468-0.38,0.925l-0.331-0.009
				c0.029-0.751,0.097-1.433,0.116-1.94h0.254c0.146,0.234,0.254,0.244,0.555,0.244h3.965l0.078,0.146
				c-1.227,1.9-2.426,3.751-3.643,5.69c0.321,0.039,0.594,0.059,1.208,0.059c0.761,0,1.442-0.059,1.725-0.322
				c0.234-0.224,0.4-0.517,0.604-1.121L26.731,35.672z"/>
			<path fill="#003847" d="M33.052,35.672c-0.078,0.478-0.254,1.461-0.36,1.803h-5.164l-0.117-0.166
				c1.257-1.89,2.514-3.848,3.722-5.728h-1.228c-0.993,0-1.178,0.116-1.334,0.34c-0.127,0.176-0.273,0.468-0.381,0.925l-0.331-0.009
				c0.029-0.751,0.098-1.433,0.116-1.94h0.254c0.146,0.234,0.254,0.244,0.555,0.244h3.965l0.078,0.146
				c-1.227,1.9-2.426,3.751-3.643,5.69c0.322,0.039,0.594,0.059,1.208,0.059c0.76,0,1.442-0.059,1.725-0.322
				c0.234-0.224,0.4-0.517,0.604-1.121L33.052,35.672z"/>
			<path fill="#003847" d="M38.8,35.828c-0.079,0.409-0.283,1.383-0.361,1.647h-4.745v-0.341c0.847-0.068,0.945-0.136,0.945-0.954
				v-3.732c0-0.838-0.098-0.896-0.838-0.964v-0.341h2.98v0.341c-0.75,0.068-0.838,0.126-0.838,0.964v3.8
				c0,0.458,0.039,0.633,0.244,0.72c0.166,0.069,0.429,0.088,0.731,0.088c0.408,0,0.76-0.068,0.993-0.331
				c0.184-0.205,0.36-0.517,0.546-1.004L38.8,35.828z"/>
			<path fill="#003847" d="M44.741,31.483c-0.624,0.068-0.818,0.244-1.169,0.818c-0.36,0.575-0.614,0.994-1.091,1.91
				c-0.136,0.262-0.175,0.37-0.175,0.672v1.247c0,0.877,0.077,0.935,0.944,1.013v0.331h-3.166v-0.331
				C40.912,37.075,41,37.007,41,36.13v-1.081c0-0.244-0.038-0.34-0.126-0.526c-0.263-0.536-0.624-1.189-1.209-2.212
				c-0.36-0.643-0.526-0.75-1.062-0.828v-0.341h2.786v0.341c-0.642,0.088-0.633,0.214-0.458,0.565
				c0.341,0.672,0.731,1.393,1.111,2.113c0.282-0.554,0.779-1.471,1.013-2.065c0.156-0.39,0.146-0.516-0.575-0.614v-0.341h2.26
				V31.483z"/>
		</g>
	</g>
	<g>
		<g>
			<path fill="#003847" d="M10.824,41.864V41.73c0.281-0.026,0.315-0.052,0.315-0.371v-1.452c0-0.323-0.034-0.349-0.315-0.376
				v-0.132h1.138v0.132c-0.28,0.027-0.315,0.053-0.315,0.376v1.452c0,0.319,0.035,0.345,0.315,0.371v0.133H10.824z"/>
			<path fill="#003847" d="M14.97,39.531c-0.205,0.012-0.285,0.061-0.303,0.235c-0.011,0.118-0.034,0.296-0.034,0.629v1.506h-0.182
				l-1.578-1.888h-0.011v0.853c0,0.333,0.019,0.5,0.03,0.615c0.019,0.167,0.083,0.239,0.364,0.25v0.133h-0.929V41.73
				c0.212-0.015,0.299-0.075,0.315-0.239c0.015-0.125,0.037-0.292,0.037-0.625v-0.792c0-0.247-0.007-0.319-0.079-0.406
				c-0.068-0.091-0.155-0.121-0.315-0.136v-0.132h0.701l1.449,1.664h0.015v-0.668c0-0.333-0.023-0.511-0.031-0.622
				c-0.019-0.163-0.099-0.228-0.375-0.243v-0.132h0.925V39.531z"/>
			<path fill="#003847" d="M17.34,40.047c-0.045-0.197-0.099-0.323-0.167-0.391c-0.065-0.068-0.163-0.091-0.383-0.091h-0.175v1.794
				c0,0.322,0.038,0.345,0.372,0.371v0.133h-1.236V41.73c0.318-0.026,0.356-0.049,0.356-0.371v-1.794h-0.129
				c-0.311,0-0.379,0.041-0.436,0.102c-0.061,0.065-0.11,0.194-0.159,0.384h-0.137c0.015-0.277,0.038-0.554,0.045-0.748h0.091
				c0.061,0.088,0.11,0.096,0.216,0.096h1.525c0.102,0,0.155-0.023,0.22-0.096h0.091c0.004,0.16,0.023,0.493,0.041,0.736
				L17.34,40.047z"/>
			<path fill="#003847" d="M19.847,41.234c-0.023,0.171-0.103,0.516-0.133,0.629H17.78V41.73c0.322-0.026,0.36-0.049,0.36-0.371
				v-1.456c0-0.331-0.038-0.349-0.307-0.372v-0.132h1.786c0.004,0.068,0.023,0.333,0.038,0.568l-0.137,0.019
				c-0.037-0.132-0.087-0.257-0.155-0.326c-0.064-0.068-0.167-0.095-0.379-0.095h-0.182c-0.141,0-0.156,0.007-0.156,0.132v0.804
				h0.254c0.319,0,0.368-0.019,0.421-0.284h0.136v0.766h-0.136c-0.053-0.273-0.099-0.288-0.421-0.288h-0.254v0.656
				c0,0.179,0.015,0.273,0.091,0.311c0.068,0.031,0.197,0.038,0.341,0.038c0.193,0,0.33-0.027,0.421-0.121
				c0.072-0.084,0.14-0.205,0.212-0.372L19.847,41.234z"/>
			<path fill="#003847" d="M22.476,41.898c-0.023,0-0.069-0.004-0.114-0.004c-0.478-0.023-0.625-0.129-0.777-0.368
				c-0.099-0.156-0.201-0.36-0.311-0.557c-0.061-0.117-0.129-0.163-0.251-0.167h-0.072v0.553c0,0.311,0.038,0.349,0.323,0.375v0.133
				h-1.145V41.73c0.285-0.026,0.326-0.064,0.326-0.375v-1.456c0-0.304-0.034-0.341-0.311-0.368v-0.132h1.066
				c0.33,0,0.523,0.037,0.675,0.144c0.152,0.099,0.258,0.269,0.258,0.504c0,0.333-0.22,0.512-0.474,0.618
				c0.053,0.11,0.197,0.364,0.307,0.539c0.137,0.209,0.216,0.331,0.292,0.409c0.083,0.088,0.144,0.133,0.231,0.164L22.476,41.898z
				 M21.05,40.654c0.159,0,0.288-0.027,0.372-0.103c0.129-0.107,0.182-0.257,0.182-0.451c0-0.403-0.235-0.551-0.447-0.551
				c-0.095,0-0.147,0.016-0.171,0.038c-0.026,0.023-0.034,0.06-0.034,0.14v0.925H21.05z"/>
			<path fill="#003847" d="M24.16,41.864V41.73c0.224-0.034,0.243-0.079,0.182-0.246c-0.037-0.114-0.095-0.273-0.151-0.429h-0.728
				c-0.042,0.117-0.092,0.255-0.137,0.406c-0.053,0.182-0.045,0.235,0.232,0.268v0.133h-0.85l0.004-0.133
				c0.25-0.03,0.296-0.072,0.421-0.39l0.777-1.95l0.193-0.049c0.243,0.664,0.478,1.323,0.724,1.976
				c0.129,0.333,0.179,0.383,0.417,0.412v0.133H24.16z M23.837,40.036h-0.011c-0.107,0.277-0.201,0.551-0.3,0.82h0.592
				L23.837,40.036z"/>
			<path fill="#003847" d="M27.815,41.219c-0.049,0.182-0.148,0.47-0.212,0.603c-0.099,0.023-0.448,0.099-0.705,0.099
				c-1.009,0-1.43-0.656-1.43-1.259c0-0.777,0.599-1.32,1.506-1.32c0.307,0,0.587,0.08,0.69,0.103
				c0.035,0.208,0.061,0.383,0.088,0.622l-0.141,0.027c-0.125-0.451-0.416-0.584-0.708-0.584c-0.551,0-0.853,0.52-0.853,1.077
				c0,0.698,0.375,1.156,0.891,1.156c0.315,0,0.55-0.201,0.743-0.584L27.815,41.219z"/>
			<path fill="#003847" d="M30.185,40.047c-0.045-0.197-0.099-0.323-0.167-0.391c-0.064-0.068-0.163-0.091-0.383-0.091H29.46v1.794
				c0,0.322,0.038,0.345,0.372,0.371v0.133h-1.236V41.73c0.319-0.026,0.356-0.049,0.356-0.371v-1.794h-0.129
				c-0.311,0-0.379,0.041-0.436,0.102c-0.06,0.065-0.11,0.194-0.159,0.384h-0.136c0.015-0.277,0.037-0.554,0.045-0.748h0.091
				c0.06,0.088,0.11,0.096,0.216,0.096h1.524c0.103,0,0.156-0.023,0.22-0.096h0.091c0.004,0.16,0.024,0.493,0.042,0.736
				L30.185,40.047z"/>
			<path fill="#003847" d="M30.671,41.864V41.73c0.281-0.026,0.315-0.052,0.315-0.371v-1.452c0-0.323-0.034-0.349-0.315-0.376
				v-0.132h1.138v0.132c-0.28,0.027-0.315,0.053-0.315,0.376v1.452c0,0.319,0.035,0.345,0.315,0.371v0.133H30.671z"/>
			<path fill="#003847" d="M34.734,39.535c-0.243,0.027-0.315,0.076-0.466,0.436c-0.125,0.292-0.471,1.152-0.767,1.934h-0.189
				c-0.257-0.694-0.615-1.607-0.773-1.998c-0.114-0.296-0.179-0.349-0.409-0.372v-0.136h1.13v0.136
				c-0.276,0.041-0.276,0.084-0.22,0.247c0.11,0.303,0.409,1.069,0.547,1.43h0.011c0.209-0.553,0.372-0.99,0.478-1.32
				c0.084-0.265,0.084-0.319-0.227-0.356v-0.136h0.887V39.535z"/>
			<path fill="#003847" d="M37.043,41.234c-0.023,0.171-0.103,0.516-0.133,0.629h-1.934V41.73c0.323-0.026,0.36-0.049,0.36-0.371
				v-1.456c0-0.331-0.037-0.349-0.307-0.372v-0.132h1.786c0.004,0.068,0.023,0.333,0.038,0.568l-0.137,0.019
				c-0.037-0.132-0.087-0.257-0.155-0.326c-0.065-0.068-0.168-0.095-0.38-0.095h-0.182c-0.14,0-0.156,0.007-0.156,0.132v0.804h0.255
				c0.319,0,0.368-0.019,0.42-0.284h0.137v0.766H36.52c-0.052-0.273-0.099-0.288-0.42-0.288h-0.255v0.656
				c0,0.179,0.016,0.273,0.091,0.311c0.069,0.031,0.197,0.038,0.341,0.038c0.193,0,0.331-0.027,0.421-0.121
				c0.072-0.084,0.14-0.205,0.212-0.372L37.043,41.234z"/>
		</g>
	</g>
</g>
</svg>
