<?xml version="1.0" encoding="utf-8"?>
<!-- Generator: Adobe Illustrator 17.0.0, SVG Export Plug-In . SVG Version: 6.00 Build 0)  -->
<!DOCTYPE svg PUBLIC "-//W3C//DTD SVG 1.1//EN" "http://www.w3.org/Graphics/SVG/1.1/DTD/svg11.dtd">
<svg version="1.1" id="图层_1" xmlns="http://www.w3.org/2000/svg" xmlns:xlink="http://www.w3.org/1999/xlink" x="0px" y="0px"
	 width="45px" height="45px" viewBox="0 0 45 45" enable-background="new 0 0 45 45" xml:space="preserve">
<path id="XMLID_263_" fill-rule="evenodd" clip-rule="evenodd" fill="#003847" d="M41.363,14.531c0,0.093,0,0.187,0,0.279
	c0.824,0.41,2.051,2.5,2.01,3.35c-0.031,0.616,0.125,1.518,0.169,2.237c-0.103-0.026-0.48,1.026-0.503,1.173
	c0.719,0.524-0.335,3.455-0.335,4.189c-0.263-0.095-0.073,0.262-0.336,0.168c-0.055,0.2-0.253,1.819-0.335,1.787
	c0.158,0.599,0.224,0.975,0.671,1.229c0,0.205,0,0.409,0,0.614c0.891,0.689,1.676,1.347,1.676,2.402
	c-0.346-0.123,0.01,0.458-0.335,0.335c0.111,0.503-0.279,0.504-0.168,1.006c-0.346-0.123,0.011,0.458-0.334,0.335
	c0,0.912-0.684,1.037-1.006,1.844c-0.63,0.078-3.607,0.449-3.854-0.056c0-0.261,0-0.522,0-0.782
	c0.488-0.195,0.806-0.897,1.339-1.006c0-0.149,0-0.298,0-0.447c-0.077-0.221-0.468-0.126-0.502-0.391
	c-1.131,0-1.755-0.599-2.626-1.341c-0.251,0.347,0.185,0.485,0.112,0.838c-0.171-0.04-0.204,0.057-0.335,0.056
	c0.253,0.076,0.145,1.661,0.168,1.955c-0.245,0.034-0.194,0.365-0.335,0.503c-0.484,0-0.968,0-1.452,0
	c-0.126,0.031,0.067,0.087-0.056,0.168c-1.742,0-3.939,0.319-5.53-0.168c0.034-0.145-0.022-0.201-0.167-0.168
	c0-1.703,1.961-1.26,3.184-2.011c0-0.149,0-0.298,0-0.447c-0.279-0.354-0.788-0.479-0.838-1.062
	c-0.219-0.088-0.116,0.145-0.224,0.168c-0.15-0.11-0.339-0.182-0.279-0.502c-0.223,0-0.448,0-0.67,0
	c-0.071-0.665-0.168,0.062-0.168-1.118c-0.007-0.124-0.237-0.023-0.334-0.055c-0.192-0.61-0.5-1.91-0.168-2.514
	c-0.171,0.073-0.457,0.338-0.558,0c-0.199-0.086-0.033,0.19-0.168,0.168c-0.25,0.026-0.01-0.437-0.168-0.503
	c-0.118,0.142-0.306,0.214-0.614,0.167c0-0.167,0-0.334,0-0.503c-0.225,0.017-0.265,0.22-0.391,0.336
	c-0.118-0.142-0.306-0.216-0.614-0.168c0.085-0.327-0.152-0.332-0.223-0.503c-0.199-0.087-0.035,0.189-0.168,0.168
	c-0.194-0.028-0.142-0.213-0.111-0.335c-0.05,0.034-0.099,0.067-0.111,0c-0.115,0.067,0.058,0.242-0.112,0.335
	c-0.15-0.073-0.235-0.212-0.335-0.335c-0.265-0.061,0.056,0.464-0.279,0.335c0,0.223,0,0.447,0,0.67
	c-0.262-0.094-0.073,0.263-0.335,0.168c0,0.261,0,0.522,0,0.782c-0.073,0.067-0.087,0.022-0.167,0
	c-0.021,0.115-0.402,2.481-0.67,2.402c0,0.225,0,0.448,0,0.67c-0.22,0.061-0.377,0.183-0.335,0.503
	c-0.263-0.094-0.073,0.263-0.335,0.168c0,0.168,0,0.335,0,0.503c-0.331,0.061-0.173,0.61-0.503,0.67c0,0.391,0,0.782,0,1.173
	c-0.056,0-0.111,0-0.168,0c0,0.335,0,0.67,0,1.006c-0.186,0.036-0.298,0.149-0.335,0.335c-0.651,0-1.304,0-1.955,0
	c-0.066,0.009-0.048,0.101-0.056,0.168c-1.383,0-2.988,0.161-4.189-0.168c0.007-0.287-0.341-0.217-0.335-0.503
	c-0.782,0-1.564,0-2.346,0c0-0.056,0-0.111,0-0.168c-0.335,0-0.67,0-1.006,0c-0.124-0.46,0.223-0.447,0.168-0.838
	c0.39-0.077,0.756-0.716,1.23-0.669c0.333,0.033,0.905-0.169,1.395-0.169c-0.025-0.214,0.387-0.169,0.558-0.335
	c0-0.26,0-0.521,0-0.782c-0.006-0.124-0.237-0.023-0.335-0.056c0-0.149,0-0.297,0-0.447c-0.006-0.124-0.238-0.023-0.334-0.056
	c0-0.036,0.138-1.159,0.168-1.172c-0.219-0.089-0.116,0.145-0.224,0.167c-0.226,0.022-0.062-0.347-0.111-0.502
	c0.055,0,0.111,0,0.168,0c-0.089-0.282-0.187-0.812-0.168-1.081c0.037-0.526,0.196-1.412,0.111-1.935
	c-0.213,0.048-0.188,0.334-0.447,0.334c0.191-0.2,0.188-0.593,0.168-1.005c0.055,0,0.111,0,0.168,0c0-0.463-0.238-1.145-0.168-1.508
	c-0.259,0.033-0.338-0.077-0.503,0c-0.156-0.248-0.379-0.343-0.838-0.558c-0.101-0.326-0.168-0.739-0.168-1.062
	c-0.357-0.389-0.517-0.973-1.173-1.061c0-0.056,0-0.112,0-0.168c-0.482-0.132-1.895,0.104-2.234-0.335
	c-0.186-0.018-0.06,0.274-0.334,0.168c-0.097-0.183-0.442-0.117-0.504-0.335c-0.186-0.018-0.061,0.274-0.335,0.168
	c-0.127-0.114-0.275-0.17-0.446-0.168c0.042-0.052,0.099-0.071,0.166-0.056c-0.195-0.433-2.325-1.057-2.457-0.447
	c-0.08-0.013-0.02-0.167-0.111-0.168c-0.119-0.026-0.106,0.08-0.112,0.168c-0.244,0.002-0.536,0.052-0.558-0.168
	c-0.199-0.087-0.034,0.189-0.167,0.168c-0.2,0.086-0.035-0.19-0.168-0.168c-0.199-0.087-0.034,0.189-0.168,0.168
	c-0.412-0.295-0.616-0.799-1.285-0.838c0-0.055,0-0.112,0-0.168c-0.705,0-1.394,0.027-2.011-0.168
	c-0.016-0.225-0.219-0.264-0.335-0.391c0.063-0.236,0.406-0.192,0.335-0.559c-0.414-0.125-0.935-0.144-1.005-0.614
	c-0.027-0.119,0.08-0.107,0.168-0.112c0.031-0.557-0.836-0.747-0.67-1.34c1.05-0.113,1.93-0.97,3.015-1.341c0-0.168,0-0.335,0-0.503
	c0.046,0.03,0.091,0.058,0.168,0.056c-0.119-0.416,0.261-0.336,0.168-0.727c0.66,0.043,1.985-1.047,2.681-1.341
	c0-0.739,0.349-1.002,0.783-1.508c0.568,0,0.956,0.121,1.396,0.167c-0.094,0.263,0.263,0.073,0.168,0.336
	c0.334-0.103,2.474-0.073,2.457-0.168c1.287-0.382,2.85-0.335,4.357-0.335c0.065-0.008,0.047-0.102,0.056-0.168
	c0.373-0.031,2.428-1.211,2.346-1.341c0.935-0.256,2.081-0.407,3.184-0.335c0,0.056,0,0.111,0,0.168
	c0.625-0.123,0.797,0.209,1.341,0.168c0.061,0.331,0.609,0.173,0.67,0.503c0.168,0,0.335,0,0.503,0
	c-0.194,0.548,3.398,0.713,3.801,0.658c2.344-0.322,4.57-0.49,7.091-0.49c0.002-0.046,2.882,0.984,3.184,1.005
	c0.132,0.251,0.624,0.443,0.824,0.601c0.414,0.325,0.635,0.474,1.003,0.841C40.22,13.169,40.742,14.408,41.363,14.531
	C41.363,14.624,40.967,14.453,41.363,14.531z"/>
</svg>
