<?xml version="1.0" encoding="utf-8"?>
<!-- Generator: Adobe Illustrator 17.0.0, SVG Export Plug-In . SVG Version: 6.00 Build 0)  -->
<!DOCTYPE svg PUBLIC "-//W3C//DTD SVG 1.1//EN" "http://www.w3.org/Graphics/SVG/1.1/DTD/svg11.dtd">
<svg version="1.1" id="图层_1" xmlns="http://www.w3.org/2000/svg" xmlns:xlink="http://www.w3.org/1999/xlink" x="0px" y="0px"
	 width="22px" height="10px" viewBox="0 0 22 12" enable-background="new 0 0 22 12" xml:space="preserve">
<g>
	<path d="M14.891,11.489c-0.078-0.078-0.078-0.205,0-0.283l4.644-4.644c0.078-0.078,0.051-0.141-0.059-0.141H0.915
		c-0.11,0-0.2-0.09-0.2-0.2V5.78c0-0.11,0.09-0.2,0.2-0.2h18.561c0.11,0,0.136-0.064,0.059-0.141l-4.644-4.644
		c-0.078-0.078-0.078-0.205,0-0.283l0.312-0.312c0.078-0.078,0.205-0.078,0.283,0l5.658,5.659c0.078,0.078,0.078,0.205,0,0.283
		l-5.659,5.659c-0.078,0.078-0.205,0.078-0.283,0L14.891,11.489z M14.749,11.347"/>
</g>
</svg>
